# xmcd
#
# Track frame offsets:
# 150
# 18979
# 36431
# 48666
# 66201
# 81956
# 97257
# 113034
# 125201
# 143574
# 159544
# 176847
# 189079
# 204679
# 218287
#
# Disc length: 3097 seconds
#
#
# Revision: 0
# Processed by: cddbd v1.5.1PL2 Copyright (c) Steve Scherf et al.
# Submitted via: FreeRIP 2.945 
#
DISCID=d80c170f
DTITLE=Vários - Rodeio Viola E Mulher
DYEAR=1900
DGENRE=Sertaneja
TTITLE0=Dá Dá Dá - Gleydson Rodrgues
TTITLE1=Clima De Rodeio - Dallas Companny
TTITLE2=Mulher de Peão - Teodoro and Sampaio
TTITLE3=Nois Tropica Mais Num Cai - Rick and Renner
TTITLE4=A Malvada - Leonardo
TTITLE5=Esourou Um Cano - Daniel
TTITLE6=Para Tudo - Gaúcho da Fronteira
TTITLE7=Rabo De Saia - Gian and Giovani
TTITLE8=Chique No Último - César e Paulinho
TTITLE9=Aonde Te Sanfona Tem Forró - Guilherme e Santiago
TTITLE10=Mulher Que Não Dá Voa - Gino e Geno
TTITLE11=A Cobra Vai Voar - Adalberto e Adriano
TTITLE12=Bailão Cuiabano - Milionário e José Rico
TTITLE13=Fica Do Meu Lado - Lucas E Luan
TTITLE14=Acabadinho - Cleiton E Camargo
EXTD=
EXTT0=
EXTT1=
EXTT2=
EXTT3=
EXTT4=
EXTT5=
EXTT6=
EXTT7=
EXTT8=
EXTT9=
EXTT10=
EXTT11=
EXTT12=
EXTT13=
EXTT14=
PLAYORDER=
